<?xml version="1.0" encoding="UTF-8"?>
<!DOCTYPE svg PUBLIC "-//W3C//DTD SVG 1.1//EN" "http://www.w3.org/Graphics/SVG/1.1/DTD/svg11.dtd">
<!-- Creator: CorelDRAW X7 -->
<svg xmlns="http://www.w3.org/2000/svg" xml:space="preserve" width="215.9mm" height="279.4mm" version="1.1" style="shape-rendering:geometricPrecision; text-rendering:geometricPrecision; image-rendering:optimizeQuality; fill-rule:evenodd; clip-rule:evenodd"
viewBox="0 0 21590 27940"
 xmlns:xlink="http://www.w3.org/1999/xlink">
 <defs>
  <style type="text/css">
   <![CDATA[
    .fil0 {fill:#416E74}
    .fil1 {fill:#79D0DC}
    .fil2 {fill:#416E74;fill-rule:nonzero}
   ]]>
  </style>
 </defs>
 <g id="Capa_x0020_1">
  <metadata id="CorelCorpID_0Corel-Layer"/>
  <g id="_1873793233216">
   <path class="fil0" d="M11726 13541c652,0 1181,-529 1181,-1181 0,-651 -529,-1180 -1181,-1180l-1377 0 0 394 1377 0c435,0 787,352 787,786 0,435 -352,787 -787,787l-983 0c-214,0 -394,190 -394,394l0 590c29,259 168,381 394,394l196 0c240,-8 370,-141 394,-394l0 -393 -394 0 0 393 -196 0 0 -590 983 0z"/>
   <path class="fil1" d="M9169 13541l98 -2 560 402c106,64 277,43 287,-139l-2 -261 67 0c5,-157 62,-288 170,-394l-393 0c-128,0 -195,76 -197,197l0 99 -393 -296 -197 0 0 -787 2361 0 0 394 393 0 0 -394c0,-253 -91,-393 -393,-393l-2362 0c-272,0 -393,106 -393,402l0 778c0,287 90,402 394,394z"/>
   <path class="fil2" d="M8668 15844c0,166 -42,300 -127,402 -85,102 -189,153 -313,153 -52,0 -97,-6 -136,-18 -38,-11 -79,-29 -123,-54l0 433 -325 0 0 -1422 325 0 0 108c48,-40 97,-74 146,-99 50,-25 107,-38 172,-38 121,0 215,48 281,144 67,96 100,226 100,391zm-332 7c0,-101 -16,-175 -47,-221 -32,-46 -81,-68 -147,-68 -29,0 -59,4 -87,14 -29,9 -58,23 -86,41l0 524c18,8 37,13 57,16 21,3 46,5 75,5 79,0 138,-26 177,-78 38,-51 58,-129 58,-233zm1476 -513l-525 1422 -349 0 158 -407 -382 -1015 341 0 218 652 205 -652 334 0zm631 1069c-86,0 -164,-11 -236,-33 -71,-21 -133,-55 -185,-100 -52,-45 -93,-102 -122,-170 -29,-68 -43,-149 -43,-241 0,-100 16,-185 47,-255 32,-69 74,-127 128,-172 52,-43 113,-75 183,-96 70,-20 143,-31 219,-31 58,0 115,7 173,20 57,13 115,34 173,63l0 278 -42 0c-13,-12 -29,-26 -48,-41 -19,-14 -39,-28 -61,-40 -24,-13 -51,-24 -80,-33 -30,-9 -63,-13 -99,-13 -83,0 -147,28 -193,86 -45,58 -68,136 -68,234 0,104 24,182 73,233 48,51 113,77 193,77 41,0 77,-5 108,-14 31,-9 57,-20 80,-33 21,-13 39,-27 55,-41 16,-13 29,-26 40,-37l42 0 0 278c-19,8 -40,17 -65,28 -24,10 -49,19 -74,26 -32,8 -61,15 -89,20 -27,4 -64,7 -109,7zm1467 -29l-325 0 0 -516c0,-42 -1,-84 -5,-125 -3,-42 -9,-73 -19,-92 -11,-24 -27,-41 -48,-51 -22,-10 -50,-15 -85,-15 -27,0 -54,5 -82,15 -27,9 -56,25 -87,47l0 737 -325 0 0 -1443 325 0 0 518c53,-45 105,-81 155,-106 51,-25 107,-38 168,-38 106,0 187,34 244,101 56,67 84,164 84,291l0 677zm813 -272l0 -218c-54,6 -99,11 -132,15 -34,4 -67,12 -99,24 -29,9 -50,25 -66,45 -16,20 -24,47 -24,80 0,49 13,83 39,101 26,19 65,28 116,28 28,0 57,-7 86,-20 30,-13 56,-31 80,-55zm0 162c-22,18 -42,35 -59,50 -18,15 -41,30 -71,44 -29,15 -57,26 -85,33 -27,8 -65,12 -115,12 -91,0 -168,-31 -228,-93 -61,-62 -91,-140 -91,-235 0,-77 15,-140 46,-187 31,-48 75,-86 133,-114 58,-28 128,-48 210,-59 81,-11 168,-20 262,-26l0 -6c0,-57 -21,-97 -63,-119 -42,-22 -106,-33 -190,-33 -38,0 -83,7 -134,21 -51,14 -101,32 -149,53l-28 0 0 -252c32,-9 84,-20 156,-33 71,-12 144,-19 217,-19 179,0 309,30 391,90 82,60 123,151 123,274l0 709 -325 0 0 -110zm964 131c-132,0 -229,-27 -289,-82 -60,-54 -91,-143 -91,-267l0 -486 -123 0 0 -226 123 0 0 -299 325 0 0 299 314 0 0 226 -314 0 0 369c0,37 1,69 1,96 1,27 6,52 15,74 9,21 24,38 46,51 22,13 54,19 96,19 18,0 40,-4 68,-11 29,-8 49,-15 60,-21l28 0 0 228c-36,10 -73,17 -113,22 -39,6 -88,8 -146,8z"/>
  </g>
 </g>
</svg>
