<?xml version="1.0" encoding="UTF-8"?>
<!DOCTYPE svg PUBLIC "-//W3C//DTD SVG 1.1//EN" "http://www.w3.org/Graphics/SVG/1.1/DTD/svg11.dtd">
<!-- Creator: CorelDRAW X7 -->
<svg xmlns="http://www.w3.org/2000/svg" xml:space="preserve" width="215.9mm" height="279.4mm" version="1.1" style="shape-rendering:geometricPrecision; text-rendering:geometricPrecision; image-rendering:optimizeQuality; fill-rule:evenodd; clip-rule:evenodd"
viewBox="0 0 21590 27940"
 xmlns:xlink="http://www.w3.org/1999/xlink">
 <defs>
  <style type="text/css">
   <![CDATA[
    .fil0 {fill:#416E74}
    .fil1 {fill:#79D0DC}
    .fil2 {fill:#416E74;fill-rule:nonzero}
   ]]>
  </style>
 </defs>
 <g id="Capa_x0020_1">
  <metadata id="CorelCorpID_0Corel-Layer"/>
  <g id="_1873791481808">
   <g>
    <path class="fil0" d="M8851 14475c478,0 866,-388 866,-866 0,-478 -388,-866 -866,-866l-1010 0 0 289 1010 0c319,0 577,258 577,577 0,319 -258,577 -577,577l-721 0c-157,0 -289,139 -289,289l0 433c21,190 123,279 289,289l144 0c176,-6 271,-103 289,-289l0 -289 -289 0 0 289 -144 0 0 -433 721 0z"/>
    <path class="fil1" d="M6975 14475l72 -1 411 294c78,48 203,32 210,-101l-1 -192 49 0c4,-115 46,-211 125,-289l-289 0c-94,0 -142,56 -144,145l0 72 -289 -217 -144 0 0 -577 1732 0 0 289 288 0 0 -289c0,-186 -66,-288 -288,-288l-1732 0c-200,0 -289,78 -289,294l0 571c0,211 66,295 289,289z"/>
   </g>
   <path class="fil2" d="M11032 13698c0,122 -31,221 -93,295 -62,75 -139,112 -230,112 -38,0 -71,-4 -99,-13 -28,-8 -59,-21 -90,-39l0 317 -239 0 0 -1043 239 0 0 79c35,-29 70,-54 107,-72 36,-19 78,-28 126,-28 89,0 158,35 206,105 49,71 73,166 73,287zm-244 5c0,-74 -11,-128 -34,-161 -23,-34 -59,-51 -108,-51 -21,0 -43,4 -64,10 -21,7 -42,17 -62,31l0 384c12,6 26,10 42,12 15,2 33,3 54,3 58,0 102,-19 130,-57 28,-37 42,-94 42,-171zm1083 -376l-385 1043 -256 0 116 -298 -280 -745 250 0 160 478 150 -478 245 0zm463 784c-63,0 -120,-8 -173,-24 -52,-16 -97,-40 -136,-73 -38,-33 -68,-75 -89,-125 -21,-50 -32,-109 -32,-177 0,-73 12,-135 35,-187 23,-51 54,-93 94,-126 38,-32 82,-55 134,-70 51,-15 105,-23 161,-23 42,0 84,5 126,14 42,10 85,26 127,47l0 204 -30 0c-10,-10 -22,-20 -35,-30 -14,-11 -29,-21 -46,-30 -17,-9 -36,-18 -58,-24 -22,-7 -46,-10 -73,-10 -61,0 -108,21 -141,64 -33,42 -50,99 -50,171 0,77 18,134 53,171 36,38 83,57 142,57 30,0 56,-4 79,-11 23,-6 42,-15 59,-24 15,-10 29,-19 40,-30 12,-10 21,-19 30,-27l30 0 0 204c-13,6 -29,13 -47,20 -18,8 -36,14 -55,19 -23,7 -45,11 -65,15 -20,3 -46,5 -80,5zm1076 -21l-238 0 0 -378c0,-31 -1,-62 -3,-92 -3,-31 -8,-54 -15,-68 -8,-17 -20,-30 -35,-37 -16,-8 -36,-11 -62,-11 -20,0 -40,3 -60,11 -20,7 -42,18 -64,34l0 541 -239 0 0 -1059 239 0 0 380c39,-33 77,-59 114,-77 37,-19 78,-28 123,-28 78,0 137,24 179,74 41,49 61,120 61,213l0 497zm597 -199l0 -160c-40,4 -73,7 -97,10 -25,3 -49,9 -73,18 -21,7 -37,18 -48,33 -12,15 -17,34 -17,59 0,36 9,61 28,74 19,14 47,20 85,20 20,0 42,-5 63,-14 22,-10 41,-23 59,-40zm0 118c-16,14 -31,26 -44,37 -13,11 -30,22 -52,33 -21,10 -42,18 -62,24 -20,5 -48,8 -84,8 -67,0 -123,-23 -168,-68 -44,-46 -66,-103 -66,-172 0,-57 11,-103 33,-138 23,-35 55,-63 98,-83 43,-21 94,-36 154,-44 60,-8 124,-14 192,-19l0 -4c0,-42 -15,-71 -46,-87 -31,-16 -77,-24 -139,-24 -28,0 -61,5 -98,15 -38,10 -74,23 -110,39l-20 0 0 -185c23,-7 61,-15 114,-24 52,-9 105,-14 159,-14 131,0 227,22 287,66 60,44 90,111 90,201l0 520 -238 0 0 -81zm707 96c-97,0 -168,-20 -212,-59 -44,-40 -66,-106 -66,-196l0 -357 -91 0 0 -166 91 0 0 -219 238 0 0 219 230 0 0 166 -230 0 0 271c0,27 0,50 0,70 1,20 5,38 11,54 7,16 18,28 34,38 16,9 40,14 71,14 12,0 29,-3 50,-9 20,-5 35,-10 43,-15l21 0 0 168c-26,7 -54,12 -83,16 -29,4 -65,5 -107,5z"/>
  </g>
 </g>
</svg>
