<?xml version="1.0" encoding="UTF-8"?>
<!DOCTYPE svg PUBLIC "-//W3C//DTD SVG 1.1//EN" "http://www.w3.org/Graphics/SVG/1.1/DTD/svg11.dtd">
<!-- Creator: CorelDRAW X7 -->
<svg xmlns="http://www.w3.org/2000/svg" xml:space="preserve" width="215.9mm" height="279.4mm" version="1.1" style="shape-rendering:geometricPrecision; text-rendering:geometricPrecision; image-rendering:optimizeQuality; fill-rule:evenodd; clip-rule:evenodd"
viewBox="0 0 21590 27940"
 xmlns:xlink="http://www.w3.org/1999/xlink">
 <defs>
  <style type="text/css">
   <![CDATA[
    .fil2 {fill:#FEFEFE}
    .fil0 {fill:#416E74}
    .fil1 {fill:#547C82}
    .fil3 {fill:#79D0DC}
   ]]>
  </style>
   <mask id="id0">
  <linearGradient id="id1" gradientUnits="userSpaceOnUse" x1="7952.67" y1="14456.1" x2="7952.71" y2="13507.7">
   <stop offset="0" style="stop-opacity:1; stop-color:white"/>
   <stop offset="1" style="stop-opacity:0; stop-color:white"/>
  </linearGradient>
    <rect style="fill:url(#id1)" x="6882" y="12783" width="2154" height="2154"/>
   </mask>
   <mask id="id2">
  <linearGradient id="id3" gradientUnits="userSpaceOnUse" x1="10352.6" y1="14277" x2="11023.2" y2="13606.4">
   <stop offset="0" style="stop-opacity:1; stop-color:white"/>
   <stop offset="1" style="stop-opacity:0; stop-color:white"/>
  </linearGradient>
    <rect style="fill:url(#id3)" x="9931" y="13013" width="1695" height="1695"/>
   </mask>
   <mask id="id4">
  <linearGradient id="id5" gradientUnits="userSpaceOnUse" x1="13032.2" y1="14323.4" x2="13777.6" y2="13578.1">
   <stop offset="0" style="stop-opacity:1; stop-color:white"/>
   <stop offset="1" style="stop-opacity:0; stop-color:white"/>
  </linearGradient>
    <rect style="fill:url(#id5)" x="12564" y="12919" width="1882" height="1882"/>
   </mask>
 </defs>
 <g id="Capa_x0020_1">
  <metadata id="CorelCorpID_0Corel-Layer"/>
  <rect class="fil0" transform="matrix(0.702005 -0.702005 -0.702005 -0.702005 7959.26 15227.6)" width="1947" height="1947" rx="392" ry="392"/>
  <rect class="fil0" x="9812" y="12894" width="1933" height="1933" rx="389" ry="389"/>
  <rect class="fil0" x="12431" y="12786" width="2149" height="2149" rx="1074" ry="1074"/>
  <path class="fil1" style="mask:url(#id0)" d="M8159 14845l785 -784c110,-110 110,-291 0,-401l-785 -784c-110,-110 -290,-110 -400,0l-784 784c-110,110 -110,291 0,401l784 784c110,110 290,110 400,0z"/>
  <path class="fil1" style="mask:url(#id2)" d="M10224 14698l1109 0c156,0 283,-127 283,-283l0 -1109c0,-156 -127,-283 -283,-283l-1109 0c-156,0 -283,127 -283,283l0 1109c0,156 127,283 283,283z"/>
  <path class="fil1" style="mask:url(#id4)" d="M13505 14792l0 0c513,0 932,-419 932,-932l0 0c0,-512 -419,-931 -932,-931l0 0c-512,0 -931,419 -931,931l0 0c0,513 419,932 931,932z"/>
  <g id="_1873793268448">
   <path class="fil2" d="M8287 14178c252,0 457,-205 457,-458 0,-253 -205,-458 -457,-458l-534 0 0 153 534 0c168,0 305,136 305,305 0,168 -137,305 -305,305l-382 0c-83,0 -152,73 -152,153l0 228c11,101 65,148 152,153l76 0c93,-3 144,-54 153,-153l0 -152 -153 0 0 152 -76 0 0 -228 382 0z"/>
   <path class="fil3" d="M7295 14178l38 -1 217 156c41,25 108,16 111,-54l0 -101 26 0c2,-61 24,-112 66,-153l-153 0c-50,0 -75,29 -76,76l0 38 -153 -114 -76 0 0 -305 915 0 0 152 153 0 0 -152c0,-98 -35,-153 -153,-153l-915 0c-106,0 -153,42 -153,156l0 302c0,111 35,156 153,153z"/>
  </g>
  <g id="_1873793268736">
   <path class="fil2" d="M11120 14160c236,0 427,-191 427,-427 0,-236 -191,-427 -427,-427l-498 0 0 142 498 0c158,0 285,127 285,285 0,157 -127,284 -285,284l-356 0c-77,0 -142,69 -142,143l0 213c11,94 61,138 142,143l72 0c86,-3 133,-51 142,-143l0 -142 -142 0 0 142 -72 0 0 -213 356 0z"/>
   <path class="fil3" d="M10195 14160l36 -1 202 145c39,24 100,16 104,-50l-1 -94 25 0c1,-57 22,-104 61,-143l-142 0c-47,0 -71,28 -71,72l0 35 -143 -107 -71 0 0 -284 854 0 0 142 142 0 0 -142c0,-92 -32,-143 -142,-143l-854 0c-99,0 -142,39 -142,146l0 281c0,104 32,146 142,143z"/>
  </g>
  <g id="_1873793267520">
   <path class="fil2" d="M13888 14175c251,0 453,-203 453,-453 0,-250 -202,-453 -453,-453l-528 0 0 151 528 0c167,0 302,135 302,302 0,167 -135,302 -302,302l-377 0c-82,0 -151,72 -151,151l0 226c11,100 64,146 151,151l76 0c91,-3 141,-53 150,-151l0 -151 -150 0 0 151 -76 0 0 -226 377 0z"/>
   <path class="fil3" d="M12907 14175l38 -1 215 154c41,25 106,17 110,-53l-1 -100 26 0c2,-60 24,-111 65,-151l-151 0c-49,0 -75,29 -75,75l0 38 -151 -113 -76 0 0 -302 906 0 0 151 151 0 0 -151c0,-97 -35,-151 -151,-151l-906 0c-105,0 -151,41 -151,154l0 299c0,110 35,154 151,151z"/>
  </g>
 </g>
</svg>
